<svg width="43" height="43" viewBox="0 0 43 43" fill="none" xmlns="http://www.w3.org/2000/svg">
<circle cx="21.5" cy="21.5" r="21.5" fill="#7B6960"/>
<path d="M23.82 21.58L27.84 26C28.2933 26.5067 28.52 26.9333 28.52 27.28C28.52 27.6267 28.26 28.0333 27.74 28.5C27.2333 28.9667 26.8 29.2 26.44 29.2C26.0933 29.2 25.6867 28.9333 25.22 28.4L21.42 24.04L17.62 28.4C17.14 28.9333 16.7267 29.2 16.38 29.2C16.0467 29.2 15.6133 28.9667 15.08 28.5C14.56 28.02 14.3 27.6133 14.3 27.28C14.3 26.9467 14.5333 26.52 15 26L19.02 21.58L15 17.16C14.5333 16.6667 14.3 16.2467 14.3 15.9C14.3 15.5533 14.56 15.1467 15.08 14.68C15.6 14.2 16.0333 13.96 16.38 13.96C16.74 13.96 17.1533 14.2267 17.62 14.76L21.42 19.12L25.22 14.76C25.7 14.2267 26.1067 13.96 26.44 13.96C26.7867 13.96 27.22 14.1933 27.74 14.66C28.26 15.1267 28.52 15.54 28.52 15.9C28.52 16.26 28.2933 16.68 27.84 17.16L23.82 21.58Z" fill="white"/>
</svg>
