<svg width="64" height="64" viewBox="0 0 64 64" fill="none" xmlns="http://www.w3.org/2000/svg">
<circle cx="32.0059" cy="32" r="32" fill="#7DDDA3"/>
<g clip-path="url(#clip0_2240_179)">
<path d="M49.8691 28.0953L47.102 19.7937C46.7465 18.7219 45.7457 18 44.6137 18H36.8809V28.5H49.9348C49.9129 28.3633 49.9129 28.2266 49.8691 28.0953ZM35.1309 18H27.398C26.266 18 25.2652 18.7219 24.9098 19.7937L22.1426 28.0953C22.0988 28.2266 22.0988 28.3633 22.077 28.5H35.1309V18ZM22.0059 30.25V43.375C22.0059 44.8242 23.1816 46 24.6309 46H47.3809C48.8301 46 50.0059 44.8242 50.0059 43.375V30.25H22.0059Z" fill="white"/>
</g>
<path d="M18.6282 38.9953L17.885 39.7578C17.5703 40.0807 17.0614 40.0807 16.7501 39.7578L10.2419 33.0839C9.92718 32.761 9.92718 32.239 10.2419 31.9195L16.7501 25.2422C17.0648 24.9193 17.5737 24.9193 17.885 25.2422L18.6282 26.0047C18.9463 26.331 18.9396 26.8634 18.6148 27.1828L14.5807 31.1261H24.2024C24.6476 31.1261 25.0059 31.4936 25.0059 31.9504V33.0496C25.0059 33.5064 24.6476 33.8739 24.2024 33.8739H14.5807L18.6148 37.8172C18.9429 38.1366 18.9496 38.669 18.6282 38.9953Z" fill="white"/>
<defs>
<clipPath id="clip0_2240_179">
<rect width="28" height="28" fill="white" transform="translate(22.0059 18)"/>
</clipPath>
</defs>
</svg>
