<svg width="64" height="64" viewBox="0 0 64 64" fill="none" xmlns="http://www.w3.org/2000/svg">
<circle cx="32.0059" cy="32" r="32" fill="#F56868"/>
<g clip-path="url(#clip0_2240_178)">
<path d="M43.8691 28.0953L41.102 19.7937C40.7465 18.7219 39.7457 18 38.6137 18H30.8809V28.5H43.9348C43.9129 28.3633 43.9129 28.2266 43.8691 28.0953ZM29.1309 18H21.398C20.266 18 19.2652 18.7219 18.9098 19.7937L16.1426 28.0953C16.0988 28.2266 16.0988 28.3633 16.077 28.5H29.1309V18ZM16.0059 30.25V43.375C16.0059 44.8242 17.1816 46 18.6309 46H41.3809C42.8301 46 44.0059 44.8242 44.0059 43.375V30.25H16.0059Z" fill="white"/>
</g>
<path d="M48.8087 27.0047L49.6014 26.2422C49.9371 25.9193 50.4799 25.9193 50.812 26.2422L57.7541 32.9161C58.0898 33.239 58.0898 33.761 57.7541 34.0805L50.812 40.7578C50.4763 41.0807 49.9335 41.0807 49.6014 40.7578L48.8087 39.9953C48.4694 39.669 48.4766 39.1366 48.823 38.8172L53.126 34.8739H42.8629C42.388 34.8739 42.0059 34.5064 42.0059 34.0496V32.9504C42.0059 32.4936 42.388 32.1261 42.8629 32.1261H53.126L48.823 28.1828C48.473 27.8634 48.4659 27.331 48.8087 27.0047Z" fill="white"/>
<defs>
<clipPath id="clip0_2240_178">
<rect width="28" height="28" fill="white" transform="translate(16.0059 18)"/>
</clipPath>
</defs>
</svg>
