<svg width="40" height="40" viewBox="0 0 40 40" fill="none" xmlns="http://www.w3.org/2000/svg">
<g clip-path="url(#clip0_2200_370)">
<path d="M39.8047 14.4219L35.8516 2.5625C35.3438 1.03125 33.9141 0 32.2969 0H21.25V15H39.8984C39.8672 14.8047 39.8672 14.6094 39.8047 14.4219ZM18.75 0H7.70312C6.08594 0 4.65625 1.03125 4.14844 2.5625L0.195312 14.4219C0.132812 14.6094 0.132812 14.8047 0.101562 15H18.75V0ZM0 17.5V36.25C0 38.3203 1.67969 40 3.75 40H36.25C38.3203 40 40 38.3203 40 36.25V17.5H0Z" fill="black"/>
</g>
<defs>
<clipPath id="clip0_2200_370">
<rect width="40" height="40" fill="white"/>
</clipPath>
</defs>
</svg>
